<?xml version="1.0" encoding="UTF-8" standalone="no"?>
<!DOCTYPE svg PUBLIC "-//W3C//DTD SVG 1.1//EN"
 "http://www.w3.org/Graphics/SVG/1.1/DTD/svg11.dtd">
<!-- Generated by graphviz version 12.2.1 (20241206.2353)
 -->
<!-- Title: graphname Pages: 1 -->
<svg width="1085pt" height="496pt"
 viewBox="0.00 0.00 1085.00 495.50" xmlns="http://www.w3.org/2000/svg" xmlns:xlink="http://www.w3.org/1999/xlink">
<g id="graph0" class="graph" transform="scale(1 1) rotate(0) translate(4 491.5)">
<title>graphname</title>
<polygon fill="white" stroke="none" points="-4,4 -4,-491.5 1081,-491.5 1081,4 -4,4"/>
<g id="clust2" class="cluster">
<title>cluster_1</title>
<polygon fill="none" stroke="black" points="8,-8 8,-479.5 1069,-479.5 1069,-8 8,-8"/>
<text text-anchor="middle" x="538.5" y="-462.2" font-family="Times,serif" font-size="14.00">services</text>
</g>
<g id="clust3" class="cluster">
<title>cluster_2</title>
<polygon fill="none" stroke="black" points="16,-117.5 16,-447 609,-447 609,-117.5 16,-117.5"/>
<text text-anchor="middle" x="312.5" y="-429.7" font-family="Times,serif" font-size="14.00">asset</text>
</g>
<g id="clust4" class="cluster">
<title>cluster_3</title>
<polygon fill="none" stroke="black" points="24,-337 24,-414.5 403,-414.5 403,-337 24,-337"/>
<text text-anchor="middle" x="213.5" y="-397.2" font-family="Times,serif" font-size="14.00">adapter</text>
</g>
<g id="clust5" class="cluster">
<title>cluster_4</title>
<polygon fill="none" stroke="black" points="411,-125.5 411,-414.5 601,-414.5 601,-125.5 411,-125.5"/>
<text text-anchor="middle" x="506" y="-397.2" font-family="Times,serif" font-size="14.00">core</text>
</g>
<g id="clust6" class="cluster">
<title>cluster_5</title>
<polygon fill="none" stroke="black" points="419,-133.5 419,-211 591,-211 591,-133.5 419,-133.5"/>
<text text-anchor="middle" x="505" y="-193.7" font-family="Times,serif" font-size="14.00">entities</text>
</g>
<g id="clust7" class="cluster">
<title>cluster_6</title>
<polygon fill="none" stroke="black" points="419,-219 419,-296.5 561,-296.5 561,-219 419,-219"/>
<text text-anchor="middle" x="490" y="-279.2" font-family="Times,serif" font-size="14.00">ports</text>
</g>
<g id="clust8" class="cluster">
<title>cluster_7</title>
<polygon fill="none" stroke="black" points="617,-16 617,-329 1061,-329 1061,-16 617,-16"/>
<text text-anchor="middle" x="839" y="-311.7" font-family="Times,serif" font-size="14.00">organization</text>
</g>
<g id="clust9" class="cluster">
<title>cluster_8</title>
<polygon fill="none" stroke="black" points="625,-219 625,-296.5 875,-296.5 875,-219 625,-219"/>
<text text-anchor="middle" x="750" y="-279.2" font-family="Times,serif" font-size="14.00">adapter</text>
</g>
<g id="clust10" class="cluster">
<title>cluster_9</title>
<polygon fill="none" stroke="black" points="883,-24 883,-296.5 1053,-296.5 1053,-24 883,-24"/>
<text text-anchor="middle" x="968" y="-279.2" font-family="Times,serif" font-size="14.00">core</text>
</g>
<g id="clust11" class="cluster">
<title>cluster_10</title>
<polygon fill="none" stroke="black" points="918,-32 918,-109.5 1018,-109.5 1018,-32 918,-32"/>
<text text-anchor="middle" x="968" y="-92.2" font-family="Times,serif" font-size="14.00">entities</text>
</g>
<g id="clust12" class="cluster">
<title>cluster_11</title>
<polygon fill="none" stroke="black" points="891,-133.5 891,-211 1033,-211 1033,-133.5 891,-133.5"/>
<text text-anchor="middle" x="962" y="-193.7" font-family="Times,serif" font-size="14.00">ports</text>
</g>
<!-- services/asset/adapter/lambda -->
<g id="node1" class="node">
<title>services/asset/adapter/lambda</title>
<polygon fill="none" stroke="black" points="31.75,-345.5 31.75,-381.5 88.25,-381.5 88.25,-345.5 31.75,-345.5"/>
<text text-anchor="middle" x="60" y="-358.45" font-family="Times,serif" font-size="14.00">lambda</text>
</g>
<!-- services/asset/core/entities/asset -->
<g id="node2" class="node">
<title>services/asset/core/entities/asset</title>
<polygon fill="none" stroke="black" points="427,-142 427,-178 481,-178 481,-142 427,-142"/>
<text text-anchor="middle" x="453.62" y="-154.95" font-family="Times,serif" font-size="14.00">asset</text>
</g>
<!-- services/asset/adapter/lambda&#45;&gt;services/asset/core/entities/asset -->
<g id="edge1" class="edge">
<title>services/asset/adapter/lambda&#45;&gt;services/asset/core/entities/asset</title>
<path fill="none" stroke="#735115" d="M73.47,-345.38C98.28,-315.06 154.35,-251.99 216,-219 280.78,-184.33 366.51,-170.04 415.42,-164.41"/>
<polygon fill="#735115" stroke="#735115" points="415.66,-167.91 425.23,-163.35 414.91,-160.95 415.66,-167.91"/>
</g>
<!-- services/asset/core/ports/driver -->
<g id="node3" class="node">
<title>services/asset/core/ports/driver</title>
<polygon fill="none" stroke="black" points="427,-227.5 427,-263.5 481,-263.5 481,-227.5 427,-227.5"/>
<text text-anchor="middle" x="453.62" y="-240.45" font-family="Times,serif" font-size="14.00">driver</text>
</g>
<!-- services/asset/adapter/lambda&#45;&gt;services/asset/core/ports/driver -->
<g id="edge2" class="edge">
<title>services/asset/adapter/lambda&#45;&gt;services/asset/core/ports/driver</title>
<path fill="none" stroke="#735115" d="M81.73,-345.02C86.53,-341.9 91.75,-339 97,-337 123.37,-326.93 132.34,-334.61 160,-329 253.33,-310.09 360.43,-277.1 416.03,-259.1"/>
<polygon fill="#735115" stroke="#735115" points="416.9,-262.49 425.33,-256.07 414.74,-255.84 416.9,-262.49"/>
</g>
<!-- services/asset/core/ports/driver&#45;&gt;services/asset/core/entities/asset -->
<g id="edge3" class="edge">
<title>services/asset/core/ports/driver&#45;&gt;services/asset/core/entities/asset</title>
<path fill="none" stroke="#c01161" d="M454,-227.2C454,-216.34 454,-202.07 454,-189.56"/>
<polygon fill="#c01161" stroke="#c01161" points="457.5,-189.79 454,-179.79 450.5,-189.79 457.5,-189.79"/>
</g>
<!-- services/asset/adapter/repository&#45;implementation -->
<g id="node4" class="node">
<title>services/asset/adapter/repository&#45;implementation</title>
<polygon fill="none" stroke="black" points="106.25,-345.5 106.25,-381.5 267.75,-381.5 267.75,-345.5 106.25,-345.5"/>
<text text-anchor="middle" x="187" y="-358.45" font-family="Times,serif" font-size="14.00">repository&#45;implementation</text>
</g>
<!-- services/asset/adapter/repository&#45;implementation&#45;&gt;services/asset/core/entities/asset -->
<g id="edge4" class="edge">
<title>services/asset/adapter/repository&#45;implementation&#45;&gt;services/asset/core/entities/asset</title>
<path fill="none" stroke="#5a4ff0" d="M203.19,-345.04C230.4,-316.36 287.82,-258.51 344,-219 366.76,-202.99 394.49,-188.4 416.42,-177.86"/>
<polygon fill="#5a4ff0" stroke="#5a4ff0" points="417.75,-181.1 425.3,-173.66 414.76,-174.77 417.75,-181.1"/>
</g>
<!-- services/asset/core/ports/driven -->
<g id="node5" class="node">
<title>services/asset/core/ports/driven</title>
<polygon fill="none" stroke="black" points="499,-227.5 499,-263.5 553,-263.5 553,-227.5 499,-227.5"/>
<text text-anchor="middle" x="525.75" y="-240.45" font-family="Times,serif" font-size="14.00">driven</text>
</g>
<!-- services/asset/adapter/repository&#45;implementation&#45;&gt;services/asset/core/ports/driven -->
<g id="edge5" class="edge">
<title>services/asset/adapter/repository&#45;implementation&#45;&gt;services/asset/core/ports/driven</title>
<path fill="none" stroke="#5a4ff0" d="M240.79,-345.01C252.6,-341.8 265.13,-338.88 277,-337 300.39,-333.3 470.43,-342.34 490,-329 507.88,-316.81 516.95,-293.67 521.51,-274.99"/>
<polygon fill="#5a4ff0" stroke="#5a4ff0" points="524.92,-275.79 523.54,-265.28 518.07,-274.35 524.92,-275.79"/>
</g>
<!-- services/asset/core/ports/driven&#45;&gt;services/asset/core/entities/asset -->
<g id="edge6" class="edge">
<title>services/asset/core/ports/driven&#45;&gt;services/asset/core/entities/asset</title>
<path fill="none" stroke="#00ed87" d="M505.88,-227.09C500.51,-222.09 494.86,-216.51 490,-211 483.63,-203.78 477.29,-195.46 471.75,-187.7"/>
<polygon fill="#00ed87" stroke="#00ed87" points="474.66,-185.75 466.07,-179.54 468.91,-189.75 474.66,-185.75"/>
</g>
<!-- services/asset/core/entities/organization -->
<g id="node7" class="node">
<title>services/asset/core/entities/organization</title>
<polygon fill="none" stroke="black" points="499.25,-142 499.25,-178 582.75,-178 582.75,-142 499.25,-142"/>
<text text-anchor="middle" x="541" y="-154.95" font-family="Times,serif" font-size="14.00">organization</text>
</g>
<!-- services/asset/core/ports/driven&#45;&gt;services/asset/core/entities/organization -->
<g id="edge12" class="edge">
<title>services/asset/core/ports/driven&#45;&gt;services/asset/core/entities/organization</title>
<path fill="none" stroke="#00ed87" d="M529.11,-227.2C531.06,-216.34 533.62,-202.07 535.87,-189.56"/>
<polygon fill="#00ed87" stroke="#00ed87" points="539.31,-190.23 537.63,-179.77 532.42,-188.99 539.31,-190.23"/>
</g>
<!-- services/asset/adapter/service&#45;gateways -->
<g id="node6" class="node">
<title>services/asset/adapter/service&#45;gateways</title>
<polygon fill="none" stroke="black" points="285.5,-345.5 285.5,-381.5 394.5,-381.5 394.5,-345.5 285.5,-345.5"/>
<text text-anchor="middle" x="340" y="-358.45" font-family="Times,serif" font-size="14.00">service&#45;gateways</text>
</g>
<!-- services/asset/adapter/service&#45;gateways&#45;&gt;services/asset/core/ports/driven -->
<g id="edge9" class="edge">
<title>services/asset/adapter/service&#45;gateways&#45;&gt;services/asset/core/ports/driven</title>
<path fill="none" stroke="#68a29e" d="M380.56,-345.08C389.16,-341.95 398.27,-339.04 407,-337 425.04,-332.78 475,-339.88 490,-329 507.41,-316.37 516.51,-293.47 521.19,-275"/>
<polygon fill="#68a29e" stroke="#68a29e" points="524.57,-275.92 523.31,-265.4 517.74,-274.42 524.57,-275.92"/>
</g>
<!-- services/asset/adapter/service&#45;gateways&#45;&gt;services/asset/core/entities/organization -->
<g id="edge7" class="edge">
<title>services/asset/adapter/service&#45;gateways&#45;&gt;services/asset/core/entities/organization</title>
<path fill="none" stroke="#68a29e" d="M343.47,-345.29C350.71,-314.22 370.62,-249.22 415,-219 442.71,-200.13 459.68,-225.31 490,-211 501.73,-205.47 512.38,-196.11 520.89,-186.98"/>
<polygon fill="#68a29e" stroke="#68a29e" points="523.42,-189.4 527.35,-179.56 518.14,-184.8 523.42,-189.4"/>
</g>
<!-- services/organization/adapter/service -->
<g id="node8" class="node">
<title>services/organization/adapter/service</title>
<polygon fill="none" stroke="black" points="812.88,-227.5 812.88,-263.5 867.12,-263.5 867.12,-227.5 812.88,-227.5"/>
<text text-anchor="middle" x="840" y="-240.45" font-family="Times,serif" font-size="14.00">service</text>
</g>
<!-- services/asset/adapter/service&#45;gateways&#45;&gt;services/organization/adapter/service -->
<g id="edge8" class="edge">
<title>services/asset/adapter/service&#45;gateways&#45;&gt;services/organization/adapter/service</title>
<path fill="none" stroke="#68a29e" d="M379.02,-345.08C388.04,-341.78 397.71,-338.8 407,-337 428.66,-332.79 785.67,-341.27 804,-329 821.98,-316.97 831.05,-293.81 835.58,-275.09"/>
<polygon fill="#68a29e" stroke="#68a29e" points="838.99,-275.85 837.59,-265.35 832.14,-274.43 838.99,-275.85"/>
</g>
<!-- services/organization/core/ports/driver -->
<g id="node9" class="node">
<title>services/organization/core/ports/driver</title>
<polygon fill="none" stroke="black" points="971,-142 971,-178 1025,-178 1025,-142 971,-142"/>
<text text-anchor="middle" x="997.62" y="-154.95" font-family="Times,serif" font-size="14.00">driver</text>
</g>
<!-- services/organization/adapter/service&#45;&gt;services/organization/core/ports/driver -->
<g id="edge10" class="edge">
<title>services/organization/adapter/service&#45;&gt;services/organization/core/ports/driver</title>
<path fill="none" stroke="#fa4deb" d="M862.54,-227.17C867.71,-223.95 873.35,-220.98 879,-219 913.97,-206.73 929.87,-229.46 962,-211 971.3,-205.66 978.84,-196.83 984.57,-188.07"/>
<polygon fill="#fa4deb" stroke="#fa4deb" points="987.44,-190.09 989.5,-179.69 981.41,-186.54 987.44,-190.09"/>
</g>
<!-- services/organization/core/entities/organization -->
<g id="node10" class="node">
<title>services/organization/core/entities/organization</title>
<polygon fill="none" stroke="black" points="926.25,-40.5 926.25,-76.5 1009.75,-76.5 1009.75,-40.5 926.25,-40.5"/>
<text text-anchor="middle" x="968" y="-53.45" font-family="Times,serif" font-size="14.00">organization</text>
</g>
<!-- services/organization/core/ports/driver&#45;&gt;services/organization/core/entities/organization -->
<g id="edge11" class="edge">
<title>services/organization/core/ports/driver&#45;&gt;services/organization/core/entities/organization</title>
<path fill="none" stroke="#5d2f5f" d="M992.77,-141.67C988.29,-126.78 981.73,-105.03 976.49,-87.64"/>
<polygon fill="#5d2f5f" stroke="#5d2f5f" points="979.94,-86.98 973.7,-78.42 973.24,-89 979.94,-86.98"/>
</g>
<!-- services/asset/core/usecases -->
<g id="node11" class="node">
<title>services/asset/core/usecases</title>
<polygon fill="none" stroke="black" points="512.75,-345.5 512.75,-381.5 575.25,-381.5 575.25,-345.5 512.75,-345.5"/>
<text text-anchor="middle" x="544" y="-358.45" font-family="Times,serif" font-size="14.00">usecases</text>
</g>
<!-- services/asset/core/usecases&#45;&gt;services/asset/core/entities/asset -->
<g id="edge15" class="edge">
<title>services/asset/core/usecases&#45;&gt;services/asset/core/entities/asset</title>
<path fill="none" stroke="#5b9190" d="M557.32,-345.31C560.46,-340.32 563.37,-334.67 565,-329 571.75,-305.51 581.34,-237.18 565,-219 553.79,-206.54 504.49,-219.42 490,-211 480.73,-205.61 473.2,-196.77 467.46,-188.01"/>
<polygon fill="#5b9190" stroke="#5b9190" points="470.63,-186.49 462.53,-179.65 464.6,-190.04 470.63,-186.49"/>
</g>
<!-- services/asset/core/usecases&#45;&gt;services/asset/core/ports/driver -->
<g id="edge16" class="edge">
<title>services/asset/core/usecases&#45;&gt;services/asset/core/ports/driver</title>
<path fill="none" stroke="#5b9190" d="M512.4,-347.29C504.34,-342.31 496.21,-336.17 490,-329 476.41,-313.3 467.23,-291.67 461.54,-274.49"/>
<polygon fill="#5b9190" stroke="#5b9190" points="465.03,-273.93 458.74,-265.41 458.34,-275.99 465.03,-273.93"/>
</g>
<!-- services/asset/core/usecases&#45;&gt;services/asset/core/ports/driven -->
<g id="edge13" class="edge">
<title>services/asset/core/usecases&#45;&gt;services/asset/core/ports/driven</title>
<path fill="none" stroke="#5b9190" d="M541.31,-345.13C538.44,-326.68 533.87,-297.2 530.46,-275.27"/>
<polygon fill="#5b9190" stroke="#5b9190" points="533.94,-274.83 528.95,-265.48 527.02,-275.9 533.94,-274.83"/>
</g>
<!-- services/asset/core/usecases&#45;&gt;services/asset/core/entities/organization -->
<g id="edge14" class="edge">
<title>services/asset/core/usecases&#45;&gt;services/asset/core/entities/organization</title>
<path fill="none" stroke="#5b9190" d="M565.83,-345.34C570.37,-340.58 574.52,-335.04 577,-329 595.54,-283.76 590.4,-266.02 577,-219 573.84,-207.92 567.89,-196.89 561.72,-187.47"/>
<polygon fill="#5b9190" stroke="#5b9190" points="564.78,-185.74 556.19,-179.54 559.04,-189.75 564.78,-185.74"/>
</g>
<!-- services/organization/adapter/repository&#45;implementation -->
<g id="node12" class="node">
<title>services/organization/adapter/repository&#45;implementation</title>
<polygon fill="none" stroke="black" points="633.25,-227.5 633.25,-263.5 794.75,-263.5 794.75,-227.5 633.25,-227.5"/>
<text text-anchor="middle" x="714" y="-240.45" font-family="Times,serif" font-size="14.00">repository&#45;implementation</text>
</g>
<!-- services/organization/adapter/repository&#45;implementation&#45;&gt;services/organization/core/entities/organization -->
<g id="edge17" class="edge">
<title>services/organization/adapter/repository&#45;implementation&#45;&gt;services/organization/core/entities/organization</title>
<path fill="none" stroke="#df1fbf" d="M737.44,-227.16C770.64,-202.62 833.31,-156.43 887,-117.5 902.51,-106.26 919.76,-93.89 934.34,-83.47"/>
<polygon fill="#df1fbf" stroke="#df1fbf" points="936.15,-86.48 942.26,-77.82 932.08,-80.78 936.15,-86.48"/>
</g>
<!-- services/organization/core/ports/driven -->
<g id="node13" class="node">
<title>services/organization/core/ports/driven</title>
<polygon fill="none" stroke="black" points="899,-142 899,-178 953,-178 953,-142 899,-142"/>
<text text-anchor="middle" x="925.75" y="-154.95" font-family="Times,serif" font-size="14.00">driven</text>
</g>
<!-- services/organization/adapter/repository&#45;implementation&#45;&gt;services/organization/core/ports/driven -->
<g id="edge18" class="edge">
<title>services/organization/adapter/repository&#45;implementation&#45;&gt;services/organization/core/ports/driven</title>
<path fill="none" stroke="#df1fbf" d="M760.19,-227.11C773.69,-221.98 788.45,-216.31 802,-211 831.05,-199.62 863.78,-186.4 888.31,-176.42"/>
<polygon fill="#df1fbf" stroke="#df1fbf" points="889.63,-179.66 897.57,-172.65 886.99,-173.18 889.63,-179.66"/>
</g>
<!-- services/organization/core/ports/driven&#45;&gt;services/organization/core/entities/organization -->
<g id="edge19" class="edge">
<title>services/organization/core/ports/driven&#45;&gt;services/organization/core/entities/organization</title>
<path fill="none" stroke="#bad40f" d="M933.32,-141.67C939.66,-126.64 948.96,-104.61 956.33,-87.15"/>
<polygon fill="#bad40f" stroke="#bad40f" points="959.37,-88.94 960.04,-78.36 952.93,-86.21 959.37,-88.94"/>
</g>
<!-- services/organization/core/usecases -->
<g id="node14" class="node">
<title>services/organization/core/usecases</title>
<polygon fill="none" stroke="black" points="966.75,-227.5 966.75,-263.5 1029.25,-263.5 1029.25,-227.5 966.75,-227.5"/>
<text text-anchor="middle" x="998" y="-240.45" font-family="Times,serif" font-size="14.00">usecases</text>
</g>
<!-- services/organization/core/usecases&#45;&gt;services/organization/core/ports/driver -->
<g id="edge22" class="edge">
<title>services/organization/core/usecases&#45;&gt;services/organization/core/ports/driver</title>
<path fill="none" stroke="#57b1db" d="M998,-227.2C998,-216.34 998,-202.07 998,-189.56"/>
<polygon fill="#57b1db" stroke="#57b1db" points="1001.5,-189.79 998,-179.79 994.5,-189.79 1001.5,-189.79"/>
</g>
<!-- services/organization/core/usecases&#45;&gt;services/organization/core/entities/organization -->
<g id="edge20" class="edge">
<title>services/organization/core/usecases&#45;&gt;services/organization/core/entities/organization</title>
<path fill="none" stroke="#57b1db" d="M1024.53,-227.25C1029.58,-222.62 1034.17,-217.16 1037,-211 1054.34,-173.24 1054.55,-155.17 1037,-117.5 1030.74,-104.07 1019.68,-92.64 1008.21,-83.57"/>
<polygon fill="#57b1db" stroke="#57b1db" points="1010.37,-80.8 1000.24,-77.7 1006.22,-86.44 1010.37,-80.8"/>
</g>
<!-- services/organization/core/usecases&#45;&gt;services/organization/core/ports/driven -->
<g id="edge21" class="edge">
<title>services/organization/core/usecases&#45;&gt;services/organization/core/ports/driven</title>
<path fill="none" stroke="#57b1db" d="M977.88,-227.09C972.51,-222.09 966.86,-216.51 962,-211 955.63,-203.78 949.29,-195.46 943.75,-187.7"/>
<polygon fill="#57b1db" stroke="#57b1db" points="946.66,-185.75 938.07,-179.54 940.91,-189.75 946.66,-185.75"/>
</g>
</g>
</svg>
