<?xml version="1.0" encoding="UTF-8" standalone="no"?>
<!DOCTYPE svg PUBLIC "-//W3C//DTD SVG 1.1//EN"
 "http://www.w3.org/Graphics/SVG/1.1/DTD/svg11.dtd">
<!-- Generated by graphviz version 12.2.1 (20241206.2353)
 -->
<!-- Title: graphname Pages: 1 -->
<svg width="1180pt" height="362pt"
 viewBox="0.00 0.00 1180.00 361.50" xmlns="http://www.w3.org/2000/svg" xmlns:xlink="http://www.w3.org/1999/xlink">
<g id="graph0" class="graph" transform="scale(1 1) rotate(0) translate(4 357.5)">
<title>graphname</title>
<polygon fill="white" stroke="none" points="-4,4 -4,-357.5 1176,-357.5 1176,4 -4,4"/>
<g id="clust2" class="cluster">
<title>cluster_1</title>
<polygon fill="none" stroke="black" points="8,-8 8,-345.5 1164,-345.5 1164,-8 8,-8"/>
<text text-anchor="middle" x="586" y="-328.2" font-family="Times,serif" font-size="14.00">services</text>
</g>
<g id="clust3" class="cluster">
<title>cluster_2</title>
<polygon fill="none" stroke="black" points="16,-16 16,-313 592,-313 592,-16 16,-16"/>
<text text-anchor="middle" x="304" y="-295.7" font-family="Times,serif" font-size="14.00">asset</text>
</g>
<g id="clust4" class="cluster">
<title>cluster_3</title>
<polygon fill="none" stroke="black" points="24,-203 24,-280.5 386,-280.5 386,-203 24,-203"/>
<text text-anchor="middle" x="205" y="-263.2" font-family="Times,serif" font-size="14.00">adapter</text>
</g>
<g id="clust5" class="cluster">
<title>cluster_4</title>
<polygon fill="none" stroke="black" points="394,-24 394,-280.5 584,-280.5 584,-24 394,-24"/>
<text text-anchor="middle" x="489" y="-263.2" font-family="Times,serif" font-size="14.00">core</text>
</g>
<g id="clust6" class="cluster">
<title>cluster_5</title>
<polygon fill="none" stroke="black" points="402,-32 402,-109.5 574,-109.5 574,-32 402,-32"/>
<text text-anchor="middle" x="488" y="-92.2" font-family="Times,serif" font-size="14.00">entities</text>
</g>
<g id="clust7" class="cluster">
<title>cluster_6</title>
<polygon fill="none" stroke="black" points="402,-117.5 402,-195 544,-195 544,-117.5 402,-117.5"/>
<text text-anchor="middle" x="473" y="-177.7" font-family="Times,serif" font-size="14.00">ports</text>
</g>
<g id="clust8" class="cluster">
<title>cluster_7</title>
<polygon fill="none" stroke="black" points="600,-16 600,-313 1156,-313 1156,-16 600,-16"/>
<text text-anchor="middle" x="878" y="-295.7" font-family="Times,serif" font-size="14.00">organization</text>
</g>
<g id="clust9" class="cluster">
<title>cluster_8</title>
<polygon fill="none" stroke="black" points="608,-203 608,-280.5 970,-280.5 970,-203 608,-203"/>
<text text-anchor="middle" x="789" y="-263.2" font-family="Times,serif" font-size="14.00">adapter</text>
</g>
<g id="clust10" class="cluster">
<title>cluster_9</title>
<polygon fill="none" stroke="black" points="978,-24 978,-280.5 1148,-280.5 1148,-24 978,-24"/>
<text text-anchor="middle" x="1063" y="-263.2" font-family="Times,serif" font-size="14.00">core</text>
</g>
<g id="clust11" class="cluster">
<title>cluster_10</title>
<polygon fill="none" stroke="black" points="1013,-32 1013,-109.5 1113,-109.5 1113,-32 1013,-32"/>
<text text-anchor="middle" x="1063" y="-92.2" font-family="Times,serif" font-size="14.00">entities</text>
</g>
<g id="clust12" class="cluster">
<title>cluster_11</title>
<polygon fill="none" stroke="black" points="986,-117.5 986,-195 1128,-195 1128,-117.5 986,-117.5"/>
<text text-anchor="middle" x="1057" y="-177.7" font-family="Times,serif" font-size="14.00">ports</text>
</g>
<!-- services/asset/adapter/http&#45;gateways -->
<g id="node1" class="node">
<title>services/asset/adapter/http&#45;gateways</title>
<polygon fill="none" stroke="black" points="286.12,-211.5 286.12,-247.5 377.88,-247.5 377.88,-211.5 286.12,-211.5"/>
<text text-anchor="middle" x="332" y="-224.45" font-family="Times,serif" font-size="14.00">http&#45;gateways</text>
</g>
<!-- services/asset/core/entities/organization -->
<g id="node2" class="node">
<title>services/asset/core/entities/organization</title>
<polygon fill="none" stroke="black" points="482.25,-40.5 482.25,-76.5 565.75,-76.5 565.75,-40.5 482.25,-40.5"/>
<text text-anchor="middle" x="524" y="-53.45" font-family="Times,serif" font-size="14.00">organization</text>
</g>
<!-- services/asset/adapter/http&#45;gateways&#45;&gt;services/asset/core/entities/organization -->
<g id="edge1" class="edge">
<title>services/asset/adapter/http&#45;gateways&#45;&gt;services/asset/core/entities/organization</title>
<path fill="none" stroke="#ff5077" d="M336.88,-211.14C344.99,-185.83 363.84,-139.41 398,-117.5 426.22,-99.4 442.68,-123.81 473,-109.5 484.73,-103.97 495.38,-94.61 503.89,-85.48"/>
<polygon fill="#ff5077" stroke="#ff5077" points="506.42,-87.9 510.35,-78.06 501.14,-83.3 506.42,-87.9"/>
</g>
<!-- services/asset/core/ports/driven -->
<g id="node3" class="node">
<title>services/asset/core/ports/driven</title>
<polygon fill="none" stroke="black" points="482,-126 482,-162 536,-162 536,-126 482,-126"/>
<text text-anchor="middle" x="508.75" y="-138.95" font-family="Times,serif" font-size="14.00">driven</text>
</g>
<!-- services/asset/adapter/http&#45;gateways&#45;&gt;services/asset/core/ports/driven -->
<g id="edge2" class="edge">
<title>services/asset/adapter/http&#45;gateways&#45;&gt;services/asset/core/ports/driven</title>
<path fill="none" stroke="#ff5077" d="M366.94,-211.01C374.4,-207.89 382.34,-205 390,-203 407.93,-198.32 456.93,-204.23 473,-195 482.3,-189.66 489.84,-180.83 495.57,-172.07"/>
<polygon fill="#ff5077" stroke="#ff5077" points="498.44,-174.09 500.5,-163.69 492.41,-170.54 498.44,-174.09"/>
</g>
<!-- services/asset/core/ports/driven&#45;&gt;services/asset/core/entities/organization -->
<g id="edge3" class="edge">
<title>services/asset/core/ports/driven&#45;&gt;services/asset/core/entities/organization</title>
<path fill="none" stroke="#302b1d" d="M512.11,-125.7C514.06,-114.84 516.62,-100.57 518.87,-88.06"/>
<polygon fill="#302b1d" stroke="#302b1d" points="522.31,-88.73 520.63,-78.27 515.42,-87.49 522.31,-88.73"/>
</g>
<!-- services/asset/core/entities/asset -->
<g id="node5" class="node">
<title>services/asset/core/entities/asset</title>
<polygon fill="none" stroke="black" points="410,-40.5 410,-76.5 464,-76.5 464,-40.5 410,-40.5"/>
<text text-anchor="middle" x="436.62" y="-53.45" font-family="Times,serif" font-size="14.00">asset</text>
</g>
<!-- services/asset/core/ports/driven&#45;&gt;services/asset/core/entities/asset -->
<g id="edge9" class="edge">
<title>services/asset/core/ports/driven&#45;&gt;services/asset/core/entities/asset</title>
<path fill="none" stroke="#302b1d" d="M488.88,-125.59C483.51,-120.59 477.86,-115.01 473,-109.5 466.63,-102.28 460.29,-93.96 454.75,-86.2"/>
<polygon fill="#302b1d" stroke="#302b1d" points="457.66,-84.25 449.07,-78.04 451.91,-88.25 457.66,-84.25"/>
</g>
<!-- services/asset/adapter/lambda -->
<g id="node4" class="node">
<title>services/asset/adapter/lambda</title>
<polygon fill="none" stroke="black" points="31.75,-211.5 31.75,-247.5 88.25,-247.5 88.25,-211.5 31.75,-211.5"/>
<text text-anchor="middle" x="60" y="-224.45" font-family="Times,serif" font-size="14.00">lambda</text>
</g>
<!-- services/asset/adapter/lambda&#45;&gt;services/asset/core/entities/asset -->
<g id="edge4" class="edge">
<title>services/asset/adapter/lambda&#45;&gt;services/asset/core/entities/asset</title>
<path fill="none" stroke="#cf2b05" d="M81.64,-211.01C112.58,-186.81 172.03,-143.17 229,-117.5 285.55,-92.02 355.88,-75.25 398.56,-66.57"/>
<polygon fill="#cf2b05" stroke="#cf2b05" points="399.22,-70.01 408.35,-64.63 397.86,-63.14 399.22,-70.01"/>
</g>
<!-- services/asset/core/ports/driver -->
<g id="node6" class="node">
<title>services/asset/core/ports/driver</title>
<polygon fill="none" stroke="black" points="410,-126 410,-162 464,-162 464,-126 410,-126"/>
<text text-anchor="middle" x="436.62" y="-138.95" font-family="Times,serif" font-size="14.00">driver</text>
</g>
<!-- services/asset/adapter/lambda&#45;&gt;services/asset/core/ports/driver -->
<g id="edge5" class="edge">
<title>services/asset/adapter/lambda&#45;&gt;services/asset/core/ports/driver</title>
<path fill="none" stroke="#cf2b05" d="M81.78,-211.13C86.57,-208 91.78,-205.07 97,-203 118.73,-194.37 125.92,-198.78 149,-195 238.54,-180.34 343.48,-161.77 398.64,-151.9"/>
<polygon fill="#cf2b05" stroke="#cf2b05" points="398.91,-155.41 408.14,-150.2 397.68,-148.52 398.91,-155.41"/>
</g>
<!-- services/asset/core/ports/driver&#45;&gt;services/asset/core/entities/asset -->
<g id="edge6" class="edge">
<title>services/asset/core/ports/driver&#45;&gt;services/asset/core/entities/asset</title>
<path fill="none" stroke="#e0ab97" d="M437,-125.7C437,-114.84 437,-100.57 437,-88.06"/>
<polygon fill="#e0ab97" stroke="#e0ab97" points="440.5,-88.29 437,-78.29 433.5,-88.29 440.5,-88.29"/>
</g>
<!-- services/asset/adapter/repository&#45;implementation -->
<g id="node7" class="node">
<title>services/asset/adapter/repository&#45;implementation</title>
<polygon fill="none" stroke="black" points="106.25,-211.5 106.25,-247.5 267.75,-247.5 267.75,-211.5 106.25,-211.5"/>
<text text-anchor="middle" x="187" y="-224.45" font-family="Times,serif" font-size="14.00">repository&#45;implementation</text>
</g>
<!-- services/asset/adapter/repository&#45;implementation&#45;&gt;services/asset/core/ports/driven -->
<g id="edge8" class="edge">
<title>services/asset/adapter/repository&#45;implementation&#45;&gt;services/asset/core/ports/driven</title>
<path fill="none" stroke="#743e67" d="M240.79,-211.04C252.61,-207.83 265.13,-204.9 277,-203 298.52,-199.56 453.81,-205.33 473,-195 482.58,-189.84 490.23,-180.89 495.97,-171.97"/>
<polygon fill="#743e67" stroke="#743e67" points="498.93,-173.85 500.89,-163.43 492.87,-170.35 498.93,-173.85"/>
</g>
<!-- services/asset/adapter/repository&#45;implementation&#45;&gt;services/asset/core/entities/asset -->
<g id="edge7" class="edge">
<title>services/asset/adapter/repository&#45;implementation&#45;&gt;services/asset/core/entities/asset</title>
<path fill="none" stroke="#743e67" d="M209.43,-211.06C238.67,-188.59 291.66,-148.69 339,-117.5 358.64,-104.56 381.19,-91.12 399.71,-80.44"/>
<polygon fill="#743e67" stroke="#743e67" points="401.28,-83.57 408.22,-75.56 397.8,-77.5 401.28,-83.57"/>
</g>
<!-- services/asset/core/usecases -->
<g id="node8" class="node">
<title>services/asset/core/usecases</title>
<polygon fill="none" stroke="black" points="495.75,-211.5 495.75,-247.5 558.25,-247.5 558.25,-211.5 495.75,-211.5"/>
<text text-anchor="middle" x="527" y="-224.45" font-family="Times,serif" font-size="14.00">usecases</text>
</g>
<!-- services/asset/core/usecases&#45;&gt;services/asset/core/entities/organization -->
<g id="edge11" class="edge">
<title>services/asset/core/usecases&#45;&gt;services/asset/core/entities/organization</title>
<path fill="none" stroke="#b8f175" d="M548.83,-211.34C553.37,-206.58 557.52,-201.04 560,-195 573.06,-163.13 569.44,-150.62 560,-117.5 556.84,-106.42 550.89,-95.39 544.72,-85.97"/>
<polygon fill="#b8f175" stroke="#b8f175" points="547.78,-84.24 539.19,-78.04 542.04,-88.25 547.78,-84.24"/>
</g>
<!-- services/asset/core/usecases&#45;&gt;services/asset/core/ports/driven -->
<g id="edge10" class="edge">
<title>services/asset/core/usecases&#45;&gt;services/asset/core/ports/driven</title>
<path fill="none" stroke="#b8f175" d="M523.27,-211.2C520.91,-200.23 517.79,-185.78 515.07,-173.18"/>
<polygon fill="#b8f175" stroke="#b8f175" points="518.57,-172.8 513.04,-163.76 511.73,-174.27 518.57,-172.8"/>
</g>
<!-- services/asset/core/usecases&#45;&gt;services/asset/core/entities/asset -->
<g id="edge12" class="edge">
<title>services/asset/core/usecases&#45;&gt;services/asset/core/entities/asset</title>
<path fill="none" stroke="#b8f175" d="M540.32,-211.31C543.46,-206.32 546.37,-200.67 548,-195 552.76,-178.45 559.51,-130.31 548,-117.5 536.79,-105.04 487.49,-117.92 473,-109.5 463.73,-104.11 456.2,-95.27 450.46,-86.51"/>
<polygon fill="#b8f175" stroke="#b8f175" points="453.63,-84.99 445.53,-78.15 447.6,-88.54 453.63,-84.99"/>
</g>
<!-- services/asset/core/usecases&#45;&gt;services/asset/core/ports/driver -->
<g id="edge13" class="edge">
<title>services/asset/core/usecases&#45;&gt;services/asset/core/ports/driver</title>
<path fill="none" stroke="#b8f175" d="M495.52,-211.84C487.72,-206.97 479.69,-201.25 473,-195 465.66,-188.15 458.87,-179.6 453.2,-171.52"/>
<polygon fill="#b8f175" stroke="#b8f175" points="456.19,-169.69 447.73,-163.31 450.36,-173.57 456.19,-169.69"/>
</g>
<!-- services/organization/adapter/http&#45;controller -->
<g id="node9" class="node">
<title>services/organization/adapter/http&#45;controller</title>
<polygon fill="none" stroke="black" points="796,-211.5 796,-247.5 890,-247.5 890,-211.5 796,-211.5"/>
<text text-anchor="middle" x="843" y="-224.45" font-family="Times,serif" font-size="14.00">http&#45;controller</text>
</g>
<!-- services/organization/core/ports/driver -->
<g id="node10" class="node">
<title>services/organization/core/ports/driver</title>
<polygon fill="none" stroke="black" points="1066,-126 1066,-162 1120,-162 1120,-126 1066,-126"/>
<text text-anchor="middle" x="1092.62" y="-138.95" font-family="Times,serif" font-size="14.00">driver</text>
</g>
<!-- services/organization/adapter/http&#45;controller&#45;&gt;services/organization/core/ports/driver -->
<g id="edge14" class="edge">
<title>services/organization/adapter/http&#45;controller&#45;&gt;services/organization/core/ports/driver</title>
<path fill="none" stroke="#78f917" d="M875.72,-211.13C883.19,-207.87 891.22,-204.9 899,-203 933.16,-194.68 1026.13,-211.81 1057,-195 1066.56,-189.8 1074.2,-180.83 1079.95,-171.92"/>
<polygon fill="#78f917" stroke="#78f917" points="1082.9,-173.8 1084.87,-163.39 1076.84,-170.3 1082.9,-173.8"/>
</g>
<!-- services/organization/core/entities/organization -->
<g id="node11" class="node">
<title>services/organization/core/entities/organization</title>
<polygon fill="none" stroke="black" points="1021.25,-40.5 1021.25,-76.5 1104.75,-76.5 1104.75,-40.5 1021.25,-40.5"/>
<text text-anchor="middle" x="1063" y="-53.45" font-family="Times,serif" font-size="14.00">organization</text>
</g>
<!-- services/organization/core/ports/driver&#45;&gt;services/organization/core/entities/organization -->
<g id="edge15" class="edge">
<title>services/organization/core/ports/driver&#45;&gt;services/organization/core/entities/organization</title>
<path fill="none" stroke="#10eb9f" d="M1086.78,-125.7C1082.8,-114.61 1077.54,-99.98 1072.99,-87.29"/>
<polygon fill="#10eb9f" stroke="#10eb9f" points="1076.39,-86.43 1069.72,-78.2 1069.81,-88.8 1076.39,-86.43"/>
</g>
<!-- services/organization/adapter/repository&#45;implementation -->
<g id="node12" class="node">
<title>services/organization/adapter/repository&#45;implementation</title>
<polygon fill="none" stroke="black" points="616.25,-211.5 616.25,-247.5 777.75,-247.5 777.75,-211.5 616.25,-211.5"/>
<text text-anchor="middle" x="697" y="-224.45" font-family="Times,serif" font-size="14.00">repository&#45;implementation</text>
</g>
<!-- services/organization/adapter/repository&#45;implementation&#45;&gt;services/organization/core/entities/organization -->
<g id="edge16" class="edge">
<title>services/organization/adapter/repository&#45;implementation&#45;&gt;services/organization/core/entities/organization</title>
<path fill="none" stroke="#8163a4" d="M734.79,-211.05C801.72,-180.14 940.99,-115.84 1014.75,-81.78"/>
<polygon fill="#8163a4" stroke="#8163a4" points="1016.16,-84.99 1023.77,-77.62 1013.22,-78.63 1016.16,-84.99"/>
</g>
<!-- services/organization/core/ports/driven -->
<g id="node13" class="node">
<title>services/organization/core/ports/driven</title>
<polygon fill="none" stroke="black" points="994,-126 994,-162 1048,-162 1048,-126 994,-126"/>
<text text-anchor="middle" x="1020.75" y="-138.95" font-family="Times,serif" font-size="14.00">driven</text>
</g>
<!-- services/organization/adapter/repository&#45;implementation&#45;&gt;services/organization/core/ports/driven -->
<g id="edge17" class="edge">
<title>services/organization/adapter/repository&#45;implementation&#45;&gt;services/organization/core/ports/driven</title>
<path fill="none" stroke="#8163a4" d="M754.34,-211.06C765.13,-208.12 776.36,-205.29 787,-203 810.72,-197.9 817.27,-200.03 841,-195 890.6,-184.48 946.74,-168.16 982.95,-157.05"/>
<polygon fill="#8163a4" stroke="#8163a4" points="983.55,-160.53 992.06,-154.23 981.48,-153.84 983.55,-160.53"/>
</g>
<!-- services/organization/core/ports/driven&#45;&gt;services/organization/core/entities/organization -->
<g id="edge18" class="edge">
<title>services/organization/core/ports/driven&#45;&gt;services/organization/core/entities/organization</title>
<path fill="none" stroke="#977892" d="M1029.7,-125.7C1035.33,-114.5 1042.79,-99.69 1049.21,-86.91"/>
<polygon fill="#977892" stroke="#977892" points="1052.26,-88.64 1053.63,-78.13 1046.01,-85.49 1052.26,-88.64"/>
</g>
<!-- services/organization/adapter/service -->
<g id="node14" class="node">
<title>services/organization/adapter/service</title>
<polygon fill="none" stroke="black" points="907.88,-211.5 907.88,-247.5 962.12,-247.5 962.12,-211.5 907.88,-211.5"/>
<text text-anchor="middle" x="935" y="-224.45" font-family="Times,serif" font-size="14.00">service</text>
</g>
<!-- services/organization/adapter/service&#45;&gt;services/organization/core/ports/driver -->
<g id="edge19" class="edge">
<title>services/organization/adapter/service&#45;&gt;services/organization/core/ports/driver</title>
<path fill="none" stroke="#4c91b2" d="M957.54,-211.17C962.71,-207.95 968.35,-204.98 974,-203 1008.97,-190.73 1024.87,-213.46 1057,-195 1066.3,-189.66 1073.84,-180.83 1079.57,-172.07"/>
<polygon fill="#4c91b2" stroke="#4c91b2" points="1082.44,-174.09 1084.5,-163.69 1076.41,-170.54 1082.44,-174.09"/>
</g>
<!-- services/organization/core/usecases -->
<g id="node15" class="node">
<title>services/organization/core/usecases</title>
<polygon fill="none" stroke="black" points="1061.75,-211.5 1061.75,-247.5 1124.25,-247.5 1124.25,-211.5 1061.75,-211.5"/>
<text text-anchor="middle" x="1093" y="-224.45" font-family="Times,serif" font-size="14.00">usecases</text>
</g>
<!-- services/organization/core/usecases&#45;&gt;services/organization/core/ports/driver -->
<g id="edge22" class="edge">
<title>services/organization/core/usecases&#45;&gt;services/organization/core/ports/driver</title>
<path fill="none" stroke="#417266" d="M1093,-211.2C1093,-200.34 1093,-186.07 1093,-173.56"/>
<polygon fill="#417266" stroke="#417266" points="1096.5,-173.79 1093,-163.79 1089.5,-173.79 1096.5,-173.79"/>
</g>
<!-- services/organization/core/usecases&#45;&gt;services/organization/core/entities/organization -->
<g id="edge20" class="edge">
<title>services/organization/core/usecases&#45;&gt;services/organization/core/entities/organization</title>
<path fill="none" stroke="#417266" d="M1119.53,-211.25C1124.58,-206.62 1129.17,-201.16 1132,-195 1146.38,-163.7 1146.54,-148.72 1132,-117.5 1125.74,-104.07 1114.68,-92.64 1103.21,-83.57"/>
<polygon fill="#417266" stroke="#417266" points="1105.37,-80.8 1095.24,-77.7 1101.22,-86.44 1105.37,-80.8"/>
</g>
<!-- services/organization/core/usecases&#45;&gt;services/organization/core/ports/driven -->
<g id="edge21" class="edge">
<title>services/organization/core/usecases&#45;&gt;services/organization/core/ports/driven</title>
<path fill="none" stroke="#417266" d="M1072.88,-211.09C1067.51,-206.09 1061.86,-200.51 1057,-195 1050.63,-187.78 1044.29,-179.46 1038.75,-171.7"/>
<polygon fill="#417266" stroke="#417266" points="1041.66,-169.75 1033.07,-163.54 1035.91,-173.75 1041.66,-169.75"/>
</g>
</g>
</svg>
